<?xml version="1.0" standalone="no"?>
<!DOCTYPE svg PUBLIC "-//W3C//DTD SVG 20010904//EN" "http://www.w3.org/TR/2001/REC-SVG-20010904/DTD/svg10.dtd">
<svg xmlns="http://www.w3.org/2000/svg" version="1.0" width="828.000000pt" height="547.000000pt" viewBox="0 0 828.000000 547.000000" preserveAspectRatio="xMidYMid meet">
<metadata>
Created by potrace 1.16, written by Peter Selinger 2001-2019
<meta name="Producer" content="Online-Convert"/></metadata>
<g transform="translate(0.000000,547.000000) scale(0.100000,-0.100000)" fill="#000000" stroke="none">
<path d="M4682 5259 c-59 -30 -118 -100 -198 -240 -38 -66 -79 -137 -91 -157 -33 -54 -60 -156 -67 -247 -4 -44 -9 -110 -12 -147 l-6 -67 -93 -36 c-52 -20 -105 -45 -120 -56 -14 -12 -49 -27 -77 -35 -44 -11 -61 -11 -120 1 -38 8 -107 15 -153 15 l-83 0 -78 127 c-176 289 -291 415 -454 496 -119 59 -159 67 -196 38 -15 -11 -32 -21 -39 -21 -7 0 -30 -17 -52 -38 -74 -72 -103 -166 -103 -332 0 -109 19 -329 40 -470 5 -36 10 -115 10 -176 0 -174 16 -207 182 -379 l67 -69 6 -76 c8 -92 17 -118 73 -197 l43 -62 -12 -128 c-14 -162 -5 -271 27 -338 14 -27 70 -113 126 -190 127 -178 138 -200 138 -295 0 -86 10 -130 42 -175 23 -35 56 -60 66 -50 3 3 0 22 -8 43 -18 49 -15 139 6 207 16 50 16 72 6 239 -11 165 -11 190 4 233 23 66 69 134 157 229 93 102 127 171 127 261 0 104 -31 151 -152 227 -80 50 -104 87 -101 156 3 80 44 204 114 348 34 70 69 147 78 172 12 32 23 46 39 48 12 2 22 -1 22 -7 0 -16 106 -61 144 -61 29 0 44 8 77 41 23 23 47 38 54 35 43 -16 104 -186 120 -331 4 -33 17 -139 31 -235 48 -347 145 -543 302 -612 72 -32 245 -151 273 -189 73 -96 94 -190 93 -414 -1 -144 -3 -168 -27 -244 -15 -46 -25 -86 -22 -89 4 -4 64 51 196 179 78 77 87 117 70 307 l-13 137 37 85 c65 150 77 184 90 256 14 82 7 152 -27 241 -21 57 -34 83 -85 171 l-25 43 18 47 c23 60 23 146 0 239 l-18 71 36 90 c20 49 36 96 36 103 0 8 13 39 30 70 47 89 48 120 7 240 -19 57 -60 218 -91 357 -70 312 -84 358 -140 453 -91 154 -212 213 -324 158z"/>
<path d="M4185 2984 c-11 -2 -45 -9 -75 -15 -68 -14 -132 -53 -199 -124 -57 -60 -71 -89 -71 -145 0 -48 13 -83 41 -111 31 -31 38 -76 21 -127 -21 -65 -12 -153 27 -244 18 -42 42 -86 52 -97 26 -28 24 -34 -8 -26 -107 28 -229 52 -235 47 -7 -7 -88 -346 -88 -368 0 -11 110 -44 148 -44 15 0 23 16 40 90 12 49 22 97 22 105 0 8 9 15 21 15 31 0 113 -22 120 -32 3 -5 -2 -44 -13 -86 -10 -42 -42 -180 -71 -305 l-52 -229 -40 6 c-22 3 -56 9 -75 12 l-35 6 -17 -79 c-9 -43 -15 -80 -13 -82 10 -10 513 -123 527 -119 17 6 50 151 36 159 -6 4 -37 12 -69 19 -33 7 -59 17 -59 21 0 9 43 200 80 359 11 47 29 122 39 168 11 46 22 86 25 89 7 8 125 -18 132 -28 3 -5 -2 -37 -10 -71 -21 -91 -30 -132 -31 -142 0 -12 157 -48 166 -38 4 4 11 27 17 52 5 25 24 107 41 184 17 76 30 140 29 141 -5 4 -275 68 -421 100 -84 19 -99 29 -71 50 14 11 53 14 145 15 l125 0 67 40 c73 44 115 50 142 20 35 -39 94 -20 116 37 14 39 11 71 -17 147 -20 56 -26 92 -28 171 -2 84 -6 106 -25 137 -20 33 -21 41 -10 71 6 19 9 46 5 61 -11 44 -92 123 -163 158 -57 28 -75 32 -166 34 -56 2 -111 1 -122 -2z"/>
<path d="M4906 1921 c-30 -60 -52 -111 -49 -115 4 -3 29 -6 56 -6 48 0 51 2 178 111 71 62 129 113 129 115 0 2 -58 4 -129 4 l-129 0 -56 -109z"/>
<path d="M1997 1713 c-4 -3 -7 -93 -7 -200 l0 -193 85 0 85 0 0 115 0 116 73 -3 72 -3 0 -320 0 -320 -72 -3 -73 -3 0 -84 0 -85 275 0 275 0 0 85 0 84 -72 3 -73 3 0 320 0 320 73 3 72 3 0 -116 0 -115 84 0 c83 0 84 0 89 27 4 22 3 319 -2 361 -1 9 -96 12 -439 12 -241 0 -442 -3 -445 -7z"/>
<path d="M2960 1635 l0 -85 75 0 75 0 -2 -322 -3 -323 -72 -3 -73 -3 0 -84 0 -85 280 0 281 0 -3 83 -3 82 -72 3 -73 3 0 324 0 325 75 0 76 0 -3 83 -3 82 -277 3 -278 2 0 -85z"/>
<path d="M4677 1713 c-4 -3 -7 -42 -7 -85 l0 -78 58 0 c32 0 61 -2 64 -5 2 -3 -20 -87 -49 -188 -100 -336 -133 -448 -133 -452 0 -3 -27 -5 -59 -5 l-60 0 -3 -32 c-2 -18 -1 -57 0 -85 l4 -53 214 0 214 0 0 85 0 85 -60 0 c-33 0 -60 3 -60 8 0 25 45 152 54 152 117 3 238 2 241 -2 5 -5 45 -141 45 -153 0 -3 -27 -5 -60 -5 l-60 0 0 -85 0 -85 240 0 240 0 5 23 c3 12 4 45 1 72 -2 28 -5 55 -5 62 -1 7 -23 13 -58 15 l-58 3 -37 115 c-20 63 -58 183 -83 265 -26 83 -53 169 -61 193 -23 70 -22 72 46 72 l61 0 -3 83 -3 82 -311 3 c-171 1 -313 -1 -317 -5z m342 -356 c17 -65 31 -124 31 -132 0 -12 -16 -15 -75 -15 -62 0 -75 3 -75 16 0 30 73 265 80 257 4 -5 21 -61 39 -126z"/>
<path d="M5537 1713 c-4 -3 -7 -42 -7 -85 l0 -78 65 0 65 0 0 -325 0 -325 -65 0 -65 0 0 -85 0 -85 215 0 215 0 0 85 0 85 -60 0 -60 0 0 265 c0 146 4 265 8 265 6 0 187 -305 307 -519 11 -20 40 -69 63 -108 l43 -73 109 0 110 0 2 33 c1 17 2 201 2 407 l1 375 73 3 72 3 0 73 c0 50 -4 77 -14 85 -9 8 -77 11 -222 9 l-209 -3 -3 -82 -3 -82 63 -3 63 -3 3 -207 c1 -122 -1 -208 -7 -208 -8 0 -165 259 -294 485 -66 114 -42 105 -267 105 -108 0 -200 -3 -203 -7z"/>
<path d="M3782 469 c-46 -9 -72 -36 -72 -74 0 -36 21 -58 92 -99 52 -30 59 -41 47 -73 -11 -29 -44 -38 -91 -22 -28 9 -42 9 -50 1 -14 -14 47 -52 85 -52 40 0 84 28 98 62 18 44 -3 82 -65 117 -63 35 -80 54 -71 80 8 27 48 37 93 23 28 -9 38 -9 44 1 4 6 4 15 0 18 -15 15 -79 25 -110 18z"/>
<path d="M6339 470 c-76 -22 -109 -70 -109 -156 0 -69 25 -112 83 -143 50 -27 82 -26 132 2 56 32 85 79 85 139 0 75 -45 141 -104 153 -17 4 -38 8 -46 10 -8 2 -27 0 -41 -5z m92 -47 c70 -41 77 -143 15 -200 -76 -70 -176 -16 -176 94 0 94 86 150 161 106z"/>
<path d="M2140 314 l0 -157 83 5 c101 5 137 26 162 93 25 63 14 126 -30 169 -36 36 -68 46 -156 46 l-59 0 0 -156z m168 100 c32 -21 55 -79 48 -119 -3 -17 -18 -45 -34 -63 -23 -27 -36 -33 -84 -38 l-58 -7 0 120 c0 66 3 123 8 127 11 12 92 -2 120 -20z"/>
<path d="M4532 318 l3 -153 88 -3 c72 -2 87 0 87 12 0 12 -16 16 -67 18 l-68 3 0 50 0 50 53 3 c36 2 52 7 52 17 0 10 -16 15 -52 17 l-53 3 0 50 0 50 68 3 c48 2 67 7 64 15 -2 8 -34 13 -91 15 l-87 3 3 -153z"/>
<path d="M5340 315 c0 -148 1 -155 20 -155 19 0 20 7 20 121 0 73 4 118 9 114 6 -3 45 -59 88 -125 108 -166 113 -165 113 41 0 147 -1 160 -17 157 -16 -3 -19 -19 -23 -117 l-5 -114 -78 116 c-64 97 -81 117 -102 117 l-25 0 0 -155z"/>
</g>
</svg>
